<svg width="40" height="40" viewBox="0 0 40 40" fill="none" xmlns="http://www.w3.org/2000/svg">
<mask id="path-1-inside-1_791_7011" fill="white">
<path d="M38.2952 14.1718L34.8475 10.7242C34.5693 10.4498 34.1985 10.2895 33.808 10.2751C33.4175 10.2606 33.0358 10.393 32.7381 10.6461C32.2785 11.0373 31.6887 11.2415 31.0856 11.2184C30.4825 11.1952 29.9101 10.9463 29.4819 10.5211C29.0568 10.0928 28.8081 9.5206 28.7849 8.91769C28.7618 8.31477 28.9659 7.72514 29.3569 7.26559C29.61 6.9679 29.7423 6.58618 29.7279 6.19572C29.7134 5.80525 29.5532 5.43437 29.2787 5.15622L25.828 1.70465C25.5363 1.41359 25.1412 1.25012 24.7291 1.25012C24.3171 1.25012 23.9219 1.41359 23.6303 1.70465L18.1342 7.19997C17.7949 7.54051 17.539 7.95497 17.3866 8.4109C17.3569 8.49856 17.3074 8.5782 17.242 8.64364C17.1765 8.70908 17.0969 8.75856 17.0092 8.78825C16.5531 8.94067 16.1386 9.19687 15.7983 9.53668L1.70453 23.6304C1.41347 23.9221 1.25 24.3172 1.25 24.7293C1.25 25.1413 1.41347 25.5365 1.70453 25.8281L5.1561 29.2757C5.43425 29.5501 5.80513 29.7104 6.1956 29.7248C6.58606 29.7393 6.96777 29.6069 7.26547 29.3539C7.72397 28.9595 8.31457 28.753 8.91892 28.7757C9.52327 28.7984 10.0967 29.0486 10.5244 29.4762C10.952 29.9039 11.2022 30.4773 11.2249 31.0817C11.2476 31.686 11.0411 32.2766 10.6467 32.7351C10.3936 33.0328 10.2613 33.4145 10.2757 33.805C10.2902 34.1955 10.4504 34.5663 10.7248 34.8445L14.1725 38.2921C14.4641 38.5832 14.8593 38.7467 15.2713 38.7467C15.6833 38.7467 16.0785 38.5832 16.3702 38.2921L30.4639 24.1984C30.8035 23.8582 31.0597 23.444 31.2123 22.9882C31.2419 22.9003 31.2914 22.8204 31.357 22.7548C31.4226 22.6892 31.5025 22.6397 31.5905 22.6101C32.0462 22.4577 32.4604 22.2018 32.8006 21.8625L38.2959 16.3664C38.5859 16.0748 38.7487 15.6802 38.7485 15.2689C38.7484 14.8577 38.5854 14.4632 38.2952 14.1718ZM20.4537 11.8554C20.3377 11.9715 20.1999 12.0636 20.0482 12.1265C19.8965 12.1893 19.7339 12.2216 19.5698 12.2216C19.4056 12.2216 19.243 12.1893 19.0913 12.1265C18.9397 12.0636 18.8019 11.9715 18.6858 11.8554L17.7866 10.9562C17.5578 10.7206 17.431 10.4045 17.4335 10.0761C17.436 9.74778 17.5675 9.43359 17.7998 9.20146C18.032 8.96933 18.3463 8.8379 18.6746 8.83557C19.003 8.83325 19.319 8.96021 19.5545 9.18903L20.4537 10.0875C20.5699 10.2035 20.662 10.3414 20.7248 10.493C20.7876 10.6447 20.82 10.8073 20.82 10.9714C20.82 11.1356 20.7876 11.2982 20.7248 11.4499C20.662 11.6015 20.5699 11.7394 20.4537 11.8554ZM23.8912 15.2929C23.6569 15.5272 23.339 15.6588 23.0077 15.6588C22.6763 15.6588 22.3585 15.5272 22.1241 15.2929L21.2647 14.4336C21.1486 14.3175 21.0565 14.1797 20.9937 14.028C20.9309 13.8763 20.8985 13.7137 20.8985 13.5496C20.8985 13.3854 20.9309 13.2228 20.9937 13.0712C21.0565 12.9195 21.1486 12.7817 21.2647 12.6656C21.4991 12.4311 21.8171 12.2994 22.1487 12.2994C22.3128 12.2994 22.4754 12.3318 22.6271 12.3946C22.7788 12.4574 22.9166 12.5495 23.0327 12.6656L23.892 13.525C24.0085 13.641 24.101 13.7789 24.1641 13.9308C24.2272 14.0827 24.2597 14.2455 24.2598 14.41C24.2599 14.5744 24.2275 14.7373 24.1645 14.8892C24.1016 15.0411 24.0092 15.1791 23.8928 15.2953L23.8912 15.2929ZM27.3287 18.7304C27.2127 18.8465 27.0749 18.9386 26.9232 19.0015C26.7715 19.0643 26.6089 19.0966 26.4448 19.0966C26.2806 19.0966 26.118 19.0643 25.9663 19.0015C25.8147 18.9386 25.6769 18.8465 25.5608 18.7304L24.7014 17.8711C24.4727 17.6355 24.3459 17.3193 24.3483 16.991C24.3508 16.6626 24.4824 16.3484 24.7146 16.1163C24.9468 15.8842 25.2611 15.7527 25.5894 15.7504C25.9178 15.7481 26.2339 15.8751 26.4694 16.1039L27.3287 16.9632C27.4456 17.0791 27.5384 17.2169 27.6018 17.3687C27.6653 17.5206 27.6981 17.6834 27.6985 17.848C27.6988 18.0125 27.6667 18.1755 27.6039 18.3276C27.5412 18.4797 27.449 18.6179 27.3327 18.7343L27.3287 18.7304ZM30.7998 22.2101C30.6838 22.3262 30.546 22.4183 30.3943 22.4812C30.2426 22.544 30.08 22.5763 29.9159 22.5763C29.7517 22.5763 29.5891 22.544 29.4374 22.4812C29.2858 22.4183 29.1479 22.3262 29.0319 22.2101L28.1381 21.3117C28.0196 21.1959 27.9252 21.0578 27.8606 20.9053C27.7959 20.7528 27.7622 20.5889 27.7614 20.4232C27.7606 20.2576 27.7927 20.0934 27.8559 19.9403C27.9192 19.7871 28.0122 19.6481 28.1296 19.5312C28.247 19.4144 28.3865 19.322 28.54 19.2596C28.6934 19.1971 28.8577 19.1657 29.0234 19.1673C29.1891 19.1689 29.3528 19.2034 29.505 19.2689C29.6572 19.3343 29.7948 19.4293 29.91 19.5484L30.8045 20.4461C30.9206 20.5622 31.0126 20.7 31.0754 20.8517C31.1382 21.0034 31.1704 21.166 31.1704 21.3302C31.1703 21.4944 31.1379 21.6569 31.075 21.8086C31.0121 21.9602 30.9199 22.098 30.8037 22.214L30.7998 22.2101Z"/>
</mask>
<path d="M38.2952 14.1718L34.8475 10.7242C34.5693 10.4498 34.1985 10.2895 33.808 10.2751C33.4175 10.2606 33.0358 10.393 32.7381 10.6461C32.2785 11.0373 31.6887 11.2415 31.0856 11.2184C30.4825 11.1952 29.9101 10.9463 29.4819 10.5211C29.0568 10.0928 28.8081 9.5206 28.7849 8.91769C28.7618 8.31477 28.9659 7.72514 29.3569 7.26559C29.61 6.9679 29.7423 6.58618 29.7279 6.19572C29.7134 5.80525 29.5532 5.43437 29.2787 5.15622L25.828 1.70465C25.5363 1.41359 25.1412 1.25012 24.7291 1.25012C24.3171 1.25012 23.9219 1.41359 23.6303 1.70465L18.1342 7.19997C17.7949 7.54051 17.539 7.95497 17.3866 8.4109C17.3569 8.49856 17.3074 8.5782 17.242 8.64364C17.1765 8.70908 17.0969 8.75856 17.0092 8.78825C16.5531 8.94067 16.1386 9.19687 15.7983 9.53668L1.70453 23.6304C1.41347 23.9221 1.25 24.3172 1.25 24.7293C1.25 25.1413 1.41347 25.5365 1.70453 25.8281L5.1561 29.2757C5.43425 29.5501 5.80513 29.7104 6.1956 29.7248C6.58606 29.7393 6.96777 29.6069 7.26547 29.3539C7.72397 28.9595 8.31457 28.753 8.91892 28.7757C9.52327 28.7984 10.0967 29.0486 10.5244 29.4762C10.952 29.9039 11.2022 30.4773 11.2249 31.0817C11.2476 31.686 11.0411 32.2766 10.6467 32.7351C10.3936 33.0328 10.2613 33.4145 10.2757 33.805C10.2902 34.1955 10.4504 34.5663 10.7248 34.8445L14.1725 38.2921C14.4641 38.5832 14.8593 38.7467 15.2713 38.7467C15.6833 38.7467 16.0785 38.5832 16.3702 38.2921L30.4639 24.1984C30.8035 23.8582 31.0597 23.444 31.2123 22.9882C31.2419 22.9003 31.2914 22.8204 31.357 22.7548C31.4226 22.6892 31.5025 22.6397 31.5905 22.6101C32.0462 22.4577 32.4604 22.2018 32.8006 21.8625L38.2959 16.3664C38.5859 16.0748 38.7487 15.6802 38.7485 15.2689C38.7484 14.8577 38.5854 14.4632 38.2952 14.1718ZM20.4537 11.8554C20.3377 11.9715 20.1999 12.0636 20.0482 12.1265C19.8965 12.1893 19.7339 12.2216 19.5698 12.2216C19.4056 12.2216 19.243 12.1893 19.0913 12.1265C18.9397 12.0636 18.8019 11.9715 18.6858 11.8554L17.7866 10.9562C17.5578 10.7206 17.431 10.4045 17.4335 10.0761C17.436 9.74778 17.5675 9.43359 17.7998 9.20146C18.032 8.96933 18.3463 8.8379 18.6746 8.83557C19.003 8.83325 19.319 8.96021 19.5545 9.18903L20.4537 10.0875C20.5699 10.2035 20.662 10.3414 20.7248 10.493C20.7876 10.6447 20.82 10.8073 20.82 10.9714C20.82 11.1356 20.7876 11.2982 20.7248 11.4499C20.662 11.6015 20.5699 11.7394 20.4537 11.8554ZM23.8912 15.2929C23.6569 15.5272 23.339 15.6588 23.0077 15.6588C22.6763 15.6588 22.3585 15.5272 22.1241 15.2929L21.2647 14.4336C21.1486 14.3175 21.0565 14.1797 20.9937 14.028C20.9309 13.8763 20.8985 13.7137 20.8985 13.5496C20.8985 13.3854 20.9309 13.2228 20.9937 13.0712C21.0565 12.9195 21.1486 12.7817 21.2647 12.6656C21.4991 12.4311 21.8171 12.2994 22.1487 12.2994C22.3128 12.2994 22.4754 12.3318 22.6271 12.3946C22.7788 12.4574 22.9166 12.5495 23.0327 12.6656L23.892 13.525C24.0085 13.641 24.101 13.7789 24.1641 13.9308C24.2272 14.0827 24.2597 14.2455 24.2598 14.41C24.2599 14.5744 24.2275 14.7373 24.1645 14.8892C24.1016 15.0411 24.0092 15.1791 23.8928 15.2953L23.8912 15.2929ZM27.3287 18.7304C27.2127 18.8465 27.0749 18.9386 26.9232 19.0015C26.7715 19.0643 26.6089 19.0966 26.4448 19.0966C26.2806 19.0966 26.118 19.0643 25.9663 19.0015C25.8147 18.9386 25.6769 18.8465 25.5608 18.7304L24.7014 17.8711C24.4727 17.6355 24.3459 17.3193 24.3483 16.991C24.3508 16.6626 24.4824 16.3484 24.7146 16.1163C24.9468 15.8842 25.2611 15.7527 25.5894 15.7504C25.9178 15.7481 26.2339 15.8751 26.4694 16.1039L27.3287 16.9632C27.4456 17.0791 27.5384 17.2169 27.6018 17.3687C27.6653 17.5206 27.6981 17.6834 27.6985 17.848C27.6988 18.0125 27.6667 18.1755 27.6039 18.3276C27.5412 18.4797 27.449 18.6179 27.3327 18.7343L27.3287 18.7304ZM30.7998 22.2101C30.6838 22.3262 30.546 22.4183 30.3943 22.4812C30.2426 22.544 30.08 22.5763 29.9159 22.5763C29.7517 22.5763 29.5891 22.544 29.4374 22.4812C29.2858 22.4183 29.1479 22.3262 29.0319 22.2101L28.1381 21.3117C28.0196 21.1959 27.9252 21.0578 27.8606 20.9053C27.7959 20.7528 27.7622 20.5889 27.7614 20.4232C27.7606 20.2576 27.7927 20.0934 27.8559 19.9403C27.9192 19.7871 28.0122 19.6481 28.1296 19.5312C28.247 19.4144 28.3865 19.322 28.54 19.2596C28.6934 19.1971 28.8577 19.1657 29.0234 19.1673C29.1891 19.1689 29.3528 19.2034 29.505 19.2689C29.6572 19.3343 29.7948 19.4293 29.91 19.5484L30.8045 20.4461C30.9206 20.5622 31.0126 20.7 31.0754 20.8517C31.1382 21.0034 31.1704 21.166 31.1704 21.3302C31.1703 21.4944 31.1379 21.6569 31.075 21.8086C31.0121 21.9602 30.9199 22.098 30.8037 22.214L30.7998 22.2101Z" stroke="white" stroke-width="5" mask="url(#path-1-inside-1_791_7011)"/>
</svg>
