<svg width="36" height="35" viewBox="0 0 36 35" fill="none" xmlns="http://www.w3.org/2000/svg">
<path d="M21.2539 12.2217C21.5619 13.1692 22.4451 13.8105 23.4414 13.8105H33.9707L25.4521 20C24.6966 20.549 24.3529 21.4957 24.5664 22.3926L24.6172 22.5713L27.8701 32.5859L19.3516 26.3965L19.1973 26.2939C18.4627 25.8456 17.5373 25.8456 16.8027 26.2939L16.6484 26.3965L8.12891 32.5859L11.3828 22.5713C11.6714 21.683 11.3934 20.7154 10.6934 20.1152L10.5479 20L2.0293 13.8105H12.5586C13.4927 13.8105 14.3272 13.2468 14.6816 12.3955L14.7461 12.2217L18 2.20605L21.2539 12.2217Z" stroke="white" stroke-width="2.6"/>
</svg>
